
Genre:Drama | Crime
Language:English  http://www.imdb.com/title/tt0973785/
Source:720.BluRay.DTS.x264-DNL

General
Complete name :The Bridge To Nowhere 2009 BRRip H264 Feel-Free
Format : MPEG-4
Format profile : Base Media
Codec ID : mp42
File size : 1.47 GiB
Duration : 1h 45mn
Overall bit rate : 2 000 Kbps
Video #1
ID : 1
Format : AVC
Format/Info : Advanced Video Codec
Format profile : Main@L5.1
Format settings, CABAC : Yes
Format settings, ReFrames : 1 frame
Codec ID : avc1
Codec ID/Info : Advanced Video Coding
Duration : 1h 45mn
Bit rate mode : Variable
Bit rate : 1 519 Kbps
Width : 648 pixels
Height : 352 pixels
Display aspect ratio : 16:9
Frame rate mode : Constant
Frame rate : 23.976 fps
Resolution : 24 bits
Colorimetry : 4:2:0
Scan type : Progressive
Bits/(Pixel*Frame) : 0.278
Stream size : 1.12 GiB (76%)
Audio #2
ID : 2
Format : AAC
Format/Info : Advanced Audio Codec
Format version : Version 4
Format profile : LC
Format settings, SBR : No
Codec ID : 40
Duration : 1h 45mn
Bit rate mode : Constant
Bit rate : 477 Kbps
Nominal bit rate : 480 Kbps
Channel(s) : 6 channels
Channel positions : Front: L C R, Rear: L R, LFE
Sampling rate : 48.0 KHz
Resolution : 16 bits
Stream size : 359 MiB (24%)
Plot:
Centers on the rise and fall of four blue-collar men who team with a destitute prostitute to create a high-priced escort service.
 
http://rapidhdd.com/images/239757vlcsnap-2010-11-26-01h54m56s91.png 
http://www.rapidhdd.com/images/75994vlcsnap-2010-11-26-01h55m37s246.png 
http://www.rapidhdd.com/images/686325vlcsnap-2010-11-26-01h56m17s143.png
 
http://www.youtube.com/watch?v=OukMb93LUPc&feature=player_embedded